# xmcd
# Track frame offsets:
# 150
# 22997
# 41539
# 66002
# 92585
# 114933
# 125118
# 145123
# 178236
# 191358
# 223151
# 230748
#
# Disc length: 3109 seconds
# Revision: 0
# Processed by: cddbd v1.4PL0 Copyright (c) Steve Scherf et al.
# Submitted via: VisiTrax 2.9.5.181 - For more info visit www.synapsa.com
#
DISCID=a90c230c
DTITLE=Wood Lawn Fats and his worthless bums of rhythm - Songs of the Crimina
DTITLE=l Justice System
DYEAR=2001
DGENRE=Blues
TTITLE0=Forty Four
TTITLE1=Folsom Prison Blues
TTITLE2=My Baby's In Jail
TTITLE3=Jailbird
TTITLE4=County Jail
TTITLE5=Another Man
TTITLE6=Subpeona Servin' Sam
TTITLE7=I'm Gonna Murder My Baby
TTITLE8=Can't Get No Bail Bond
TTITLE9=Manatee County Jail
TTITLE10=Precious Lord
TTITLE11=Secret Track for Hip People
EXTD=Tricknology,CD 7363
EXTT0=
EXTT1=
EXTT2=
EXTT3=
EXTT4=
EXTT5=
EXTT6=
EXTT7=
EXTT8=
EXTT9=
EXTT10=
EXTT11=
PLAYORDER=
